HIERARCHY
ROOT joint_Root
{
	OFFSET 0.0 0.0 0.0
	CHANNELS 6 Xposition Yposition Zposition Zrotation Xrotation Yrotation 
	JOINT Hips
	{
		OFFSET 4.5925 91.4895 -427.239
		CHANNELS 6 Xposition Yposition Zposition Zrotation Xrotation Yrotation 
		JOINT Spine
		{
			OFFSET 15.7357 0.0 0.0
			CHANNELS 6 Xposition Yposition Zposition Zrotation Xrotation Yrotation 
			JOINT Chest
			{
				OFFSET 8.98455 -0.406207 0.0
				CHANNELS 6 Xposition Yposition Zposition Zrotation Xrotation Yrotation 
				JOINT Neck
				{
					OFFSET 16.3773 0.0 0.0
					CHANNELS 6 Xposition Yposition Zposition Zrotation Xrotation Yrotation 
					JOINT Head
					{
						OFFSET 6.45672 0.0 0.0
						CHANNELS 6 Xposition Yposition Zposition Zrotation Xrotation Yrotation 
						End Site
						{
							OFFSET 0.0 0.0 0.0
						}
					}
				}
				JOINT Shoulder_L
				{
					OFFSET 12.9942 -0.242716 4.98039
					CHANNELS 6 Xposition Yposition Zposition Zrotation Xrotation Yrotation 
					JOINT UpperArm_L
					{
						OFFSET 5.34809 0.0 0.0
						CHANNELS 6 Xposition Yposition Zposition Zrotation Xrotation Yrotation 
						JOINT LowerArm_L
						{
							OFFSET 24.3286 1.87007e-05 0.0
							CHANNELS 6 Xposition Yposition Zposition Zrotation Xrotation Yrotation 
							JOINT Hand_L
							{
								OFFSET 22.2916 0.0 0.0
								CHANNELS 6 Xposition Yposition Zposition Zrotation Xrotation Yrotation 
								End Site
								{
									OFFSET 0.0 0.0 0.0
								}
							}
						}
					}
				}
				JOINT Shoulder_R
				{
					OFFSET 12.9945 -0.242716 -4.98039
					CHANNELS 6 Xposition Yposition Zposition Zrotation Xrotation Yrotation 
					JOINT UpperArm_R
					{
						OFFSET -5.34813 0.0 0.0
						CHANNELS 6 Xposition Yposition Zposition Zrotation Xrotation Yrotation 
						JOINT LowerArm_R
						{
							OFFSET -24.3289 0.000322201 0.0
							CHANNELS 6 Xposition Yposition Zposition Zrotation Xrotation Yrotation 
							JOINT Hand_R
							{
								OFFSET -22.2915 -0.000108084 0.0
								CHANNELS 6 Xposition Yposition Zposition Zrotation Xrotation Yrotation 
								End Site
								{
									OFFSET 0.0 0.0 0.0
								}
							}
						}
					}
				}
			}
		}
		JOINT UpperLeg_L
		{
			OFFSET -2.19248 -6.46944 0.0
			CHANNELS 6 Xposition Yposition Zposition Zrotation Xrotation Yrotation 
			JOINT LowerLeg_L
			{
				OFFSET 39.0811 0.0 -1.23785e-05
				CHANNELS 6 Xposition Yposition Zposition Zrotation Xrotation Yrotation 
				JOINT Foot_L
				{
					OFFSET 40.9854 0.0 -1.26872e-05
					CHANNELS 6 Xposition Yposition Zposition Zrotation Xrotation Yrotation 
					JOINT Toes_L
					{
						OFFSET 11.7543 0.0 0.0
						CHANNELS 6 Xposition Yposition Zposition Zrotation Xrotation Yrotation 
						End Site
						{
							OFFSET 0.0 0.0 0.0
						}
					}
				}
			}
		}
		JOINT UpperLeg_R
		{
			OFFSET -2.19251 6.46944 0.0
			CHANNELS 6 Xposition Yposition Zposition Zrotation Xrotation Yrotation 
			JOINT LowerLeg_R
			{
				OFFSET -39.0811 -0.00228153 -0.0401928
				CHANNELS 6 Xposition Yposition Zposition Zrotation Xrotation Yrotation 
				JOINT Foot_R
				{
					OFFSET -40.9854 0.0 0.0
					CHANNELS 6 Xposition Yposition Zposition Zrotation Xrotation Yrotation 
					JOINT Toes_R
					{
						OFFSET -11.7543 0.0 0.0
						CHANNELS 6 Xposition Yposition Zposition Zrotation Xrotation Yrotation 
						End Site
						{
							OFFSET 0.0 0.0 0.0
						}
					}
				}
			}
		}
	}
}
MOTION
Frames:	4
Frame Time:	0.0333333
0.000000 0.000000 0.000000 0.000000 0.000000 -0.000000 3.432650 88.201400 -19.018900 89.803100 -11.655900 5.288150 15.735700 0.000005 -0.000001 88.832300 83.774000 -89.540800 8.984550 -0.406207 -0.000000 4.682410 -0.234232 -1.405720 16.377300 -0.000001 -0.000001 -1.043830 -1.647010 -1.937990 6.456720 -0.000001 -0.000000 -7.911070 -0.668038 -7.986600 12.994200 -0.242716 4.980390 -91.693900 5.365990 -72.452100 5.348090 -0.000007 -0.000001 -65.385600 27.778100 -7.886270 24.328600 0.000019 0.000005 5.057280 23.541300 -12.493100 22.291600 -0.000001 0.000005 12.302400 5.121070 4.629500 12.994500 -0.242716 -4.980390 88.713900 9.471950 -82.231300 -5.348130 -0.000001 -0.000004 -57.366800 31.566400 -25.680000 -24.328900 0.000322 -0.000009 -0.483362 -0.824689 -30.277500 -22.291500 -0.000108 -0.000004 18.709500 5.440840 -4.309950 -2.192480 -6.469440 -0.000000 179.222000 -6.962930 -5.621820 39.081100 -0.000007 -0.000012 0.050901 -0.058080 41.229800 40.985400 -0.000006 -0.000013 7.159110 1.948720 -78.014400 11.754300 -0.000000 0.000003 -1.626920 -2.236570 -18.372600 -2.192510 6.469440 -0.000001 173.836000 5.616370 168.609000 -39.081100 -0.002282 -0.040193 0.116472 -0.040640 70.277600 -40.985400 0.000008 0.000006 7.916490 -4.830470 -50.031700 -11.754300 -0.000006 -0.000006 -0.023776 -0.187369 -24.236200
0.000000 0.000000 0.000000 0.000000 0.000000 -0.000000 3.069910 89.310300 -15.883400 89.215000 -9.188400 3.949630 15.735700 0.000005 -0.000001 83.514500 84.128100 -84.059100 8.984550 -0.406207 -0.000000 3.897530 -1.306240 -1.043640 16.377300 -0.000001 -0.000001 -1.423350 -2.275540 -2.078490 6.456720 -0.000001 -0.000000 -7.788390 -1.126190 -7.456820 12.994200 -0.242716 4.980390 -91.487200 4.982290 -73.357600 5.348090 -0.000007 -0.000001 -63.192300 29.735900 -13.829300 24.328600 0.000019 0.000005 6.268560 22.099000 -16.279100 22.291600 -0.000001 0.000005 13.099800 5.149460 3.956650 12.994500 -0.242716 -4.980390 88.679400 9.274130 -81.859100 -5.348130 -0.000001 -0.000004 -60.628800 33.177200 -20.309900 -24.328900 0.000322 -0.000009 0.337204 0.688074 -26.231600 -22.291500 -0.000108 -0.000004 16.825500 5.423130 -3.703180 -2.192480 -6.469440 -0.000000 179.968000 -5.842490 -3.598730 39.081100 -0.000007 -0.000012 0.036885 -0.046992 38.127300 40.985400 -0.000006 -0.000013 7.306260 3.770520 -74.916900 11.754300 -0.000000 0.000003 -1.414700 -1.779120 -18.695700 -2.192510 6.469440 -0.000001 176.840000 8.205490 164.923000 -39.081100 -0.002282 -0.040193 0.083551 -0.035409 66.229900 -40.985400 0.000008 0.000006 8.768590 -6.315400 -54.465200 -11.754300 -0.000006 -0.000006 -0.023988 -0.188452 -24.280900
0.000000 0.000000 0.000000 0.000000 0.000000 -0.000000 2.675300 90.232600 -12.870500 88.730900 -7.115630 2.489740 15.735700 0.000005 -0.000001 79.583800 84.461800 -79.990400 8.984550 -0.406207 -0.000000 3.122490 -1.983980 -0.758299 16.377300 -0.000001 -0.000001 -2.019930 -2.707360 -2.050830 6.456720 -0.000001 -0.000000 -7.966310 -1.495500 -6.779290 12.994200 -0.242716 4.980390 -91.259100 4.462450 -74.226300 5.348090 -0.000007 -0.000001 -61.050000 30.406900 -19.597700 24.328600 0.000019 0.000005 7.377230 19.983500 -20.753800 22.291600 -0.000001 0.000005 13.081100 5.180960 3.190990 12.994500 -0.242716 -4.980390 88.647100 9.231190 -81.625100 -5.348130 -0.000001 -0.000004 -64.475600 33.606900 -13.922500 -24.328900 0.000322 -0.000009 0.769898 1.848220 -22.658400 -22.291500 -0.000108 -0.000004 15.279000 5.409080 -3.233680 -2.192480 -6.469440 -0.000000 -179.180000 -5.328790 -2.059520 39.081100 -0.000007 -0.000012 0.026202 -0.036830 35.428200 40.985400 -0.000006 -0.000013 7.447190 5.729760 -71.975000 11.754300 -0.000000 0.000003 -0.005991 -0.070766 -19.456900 -2.192510 6.469440 -0.000001 179.939000 9.380740 161.567000 -39.081100 -0.002282 -0.040193 0.052194 -0.028838 59.517400 -40.985400 0.000008 0.000006 8.366550 -6.286000 -58.161400 -11.754300 -0.000006 -0.000006 -0.022727 -0.181950 -24.012400
0.000000 0.000000 0.000000 0.000000 0.000000 -0.000000 2.201100 90.737900 -9.860300 88.354800 -4.954820 1.151060 15.735700 0.000005 -0.000001 75.057400 84.660000 -75.336500 8.984550 -0.406207 -0.000000 2.548810 -2.738820 -0.496788 16.377300 -0.000001 -0.000001 -2.763420 -2.926010 -1.940890 6.456720 -0.000001 -0.000000 -8.495960 -1.619800 -6.054110 12.994200 -0.242716 4.980390 -91.049600 3.910750 -74.964600 5.348090 -0.000007 -0.000001 -59.063300 30.273000 -24.923600 24.328600 0.000019 0.000005 8.318630 17.491700 -25.944600 22.291600 -0.000001 0.000005 12.870700 5.202930 2.645400 12.994500 -0.242716 -4.980390 88.599600 9.347490 -81.440500 -5.348130 -0.000001 -0.000004 -68.192100 33.010400 -7.598990 -24.328900 0.000322 -0.000009 0.927555 2.694180 -19.040400 -22.291500 -0.000108 -0.000004 14.272200 5.397080 -2.842420 -2.192480 -6.469440 -0.000000 -178.317000 -4.452210 -0.849438 39.081100 -0.000007 -0.000012 0.019936 -0.029984 33.617600 40.985400 -0.000006 -0.000013 7.322800 7.461000 -69.880900 11.754300 -0.000000 0.000003 -0.014972 -0.137654 -22.193100 -2.192510 6.469440 -0.000001 -177.284000 10.406500 158.864000 -39.081100 -0.002282 -0.040193 0.038879 -0.028871 50.985800 -40.985400 0.000008 0.000006 7.688890 -4.164210 -60.463100 -11.754300 -0.000006 -0.000006 -0.023115 -0.183969 -24.095800
